<?xml version="1.0" standalone="no"?>
<!DOCTYPE svg PUBLIC "-//W3C//DTD SVG 20010904//EN"
 "http://www.w3.org/TR/2001/REC-SVG-20010904/DTD/svg10.dtd">
<svg version="1.0" xmlns="http://www.w3.org/2000/svg"
 width="512.000000pt" height="512.000000pt" viewBox="0 0 512.000000 512.000000"
 preserveAspectRatio="xMidYMid meet">

<g transform="translate(0.000000,512.000000) scale(0.100000,-0.100000)"
fill="#000000" stroke="none">
<path d="M1252 4955 c-23 -7 -57 -24 -76 -38 -27 -21 -32 -31 -28 -56 3 -25
-4 -42 -37 -86 -23 -30 -46 -67 -51 -81 -9 -21 3 -14 56 36 107 100 198 127
249 75 14 -13 25 -30 25 -36 0 -7 -18 -28 -41 -48 -22 -20 -66 -60 -97 -90
l-57 -54 53 46 c113 98 231 133 288 84 42 -36 27 -57 -99 -140 -78 -52 -129
-93 -167 -138 -29 -35 -60 -69 -68 -76 -15 -13 -20 -11 142 -52 43 -11 83 -24
88 -29 5 -5 11 -106 15 -224 l6 -216 66 -17 c89 -22 271 -112 351 -173 75 -59
128 -124 167 -208 26 -54 28 -69 28 -174 0 -76 -7 -143 -19 -198 l-19 -82 -46
43 c-25 24 -73 62 -106 86 -33 24 -76 59 -96 78 -65 62 -152 63 -202 3 -60
-71 -44 -137 51 -214 71 -57 112 -99 207 -209 l58 -67 -32 -51 c-17 -28 -91
-134 -164 -236 -72 -101 -153 -214 -180 -251 -26 -37 -69 -111 -97 -164 -73
-144 -78 -226 -19 -293 45 -51 136 -61 154 -18 5 10 11 78 15 151 7 129 8 135
48 215 22 45 98 172 168 282 143 224 201 327 240 430 68 180 125 443 125 586
0 124 -46 399 -112 663 -22 87 -38 160 -36 162 3 3 42 0 88 -6 131 -16 125
-18 140 42 26 109 78 216 137 280 19 21 22 29 11 32 -8 3 -111 14 -229 25
-340 33 -316 28 -329 59 -28 59 -108 166 -168 222 -125 118 -275 164 -401 125z"/>
<path d="M423 4849 c-91 -35 -133 -104 -133 -219 0 -118 19 -142 125 -155 64
-8 480 -79 608 -103 l97 -19 0 36 c0 20 11 61 25 91 24 52 24 53 3 25 -83
-112 -168 -140 -176 -56 -2 22 -8 31 -21 31 -10 0 -26 9 -37 21 -16 17 -19 36
-18 103 1 47 7 96 16 116 l15 35 -91 38 c-159 68 -193 77 -280 76 -56 0 -97
-6 -133 -20z"/>
<path d="M4038 4476 c-60 -16 -113 -57 -150 -116 l-29 -47 -157 -7 c-125 -5
-172 -4 -231 9 -51 10 -78 12 -85 5 -5 -5 -18 -10 -28 -10 -31 0 -41 -37 -35
-134 3 -50 12 -114 21 -141 l15 -50 138 -38 c76 -21 176 -46 223 -56 l85 -17
7 -120 c4 -65 12 -237 17 -381 l10 -262 105 -168 c114 -184 208 -351 319 -570
40 -79 74 -143 77 -143 3 1 27 30 54 67 28 36 74 86 104 112 l54 46 -6 48 c-4
26 -24 118 -46 205 -59 238 -230 1046 -230 1089 0 5 59 0 143 -13 175 -28 252
-30 261 -8 10 26 7 244 -5 314 -5 35 -15 70 -21 77 -11 14 -128 53 -158 53
-17 0 -17 -3 -3 -47 21 -68 13 -235 -13 -288 -10 -21 -27 -43 -37 -49 -32 -19
-44 14 -50 137 -3 61 -10 123 -16 137 -8 20 -9 14 -5 -30 7 -68 -10 -167 -35
-200 -19 -26 -66 -39 -84 -21 -5 5 -13 63 -17 128 -11 154 -25 194 -26 70 -1
-115 -27 -187 -68 -187 -36 0 -46 26 -63 154 -8 61 -26 143 -40 181 -32 89
-39 131 -23 150 17 21 59 19 99 -6 l33 -20 15 20 c24 35 85 29 126 -13 l33
-33 13 29 c12 26 11 32 -10 62 -57 83 -162 114 -281 82z"/>
<path d="M2772 4200 c-52 -225 -54 -256 -62 -825 -8 -609 -10 -623 -85 -849
-25 -75 -45 -149 -45 -165 0 -91 175 -171 372 -171 158 0 347 61 369 118 15
37 4 165 -25 293 -58 255 -122 431 -274 754 -86 183 -157 380 -186 515 -9 41
-22 154 -29 250 l-13 175 -22 -95z m174 -836 c64 -164 134 -348 155 -408 46
-126 152 -547 141 -557 -6 -6 -120 -24 -273 -44 -47 -6 -154 7 -220 27 l-36
10 19 51 c11 28 28 88 39 135 41 173 49 278 49 696 0 220 2 397 5 394 3 -2 57
-139 121 -304z"/>
<path d="M705 3210 c-110 -68 -185 -123 -229 -169 -28 -29 -28 -31 -24 -123 4
-67 13 -116 33 -176 l29 -83 55 63 c127 146 234 244 304 276 81 38 107 74 107
145 0 40 -5 53 -33 84 -29 31 -41 37 -88 40 -52 4 -58 2 -154 -57z"/>
<path d="M1200 3181 c-42 -9 -111 -44 -130 -65 -11 -14 -6 -26 32 -84 42 -63
78 -125 78 -136 0 -2 -14 -9 -31 -15 -57 -20 -118 -13 -191 20 -76 36 -98 31
-98 -22 0 -46 55 -93 133 -114 74 -20 123 -16 203 16 l51 20 59 -35 c85 -51
161 -58 236 -24 71 33 122 104 97 134 -17 21 -39 17 -89 -16 -54 -36 -112 -40
-169 -11 -68 35 -68 40 14 121 41 41 75 82 75 91 0 21 -51 74 -89 93 -21 11
-142 40 -145 35 -1 -1 -17 -4 -36 -8z"/>
</g>
</svg>
