<svg version="1.1" id="Layer_1" xmlns="http://www.w3.org/2000/svg" xmlns:xlink="http://www.w3.org/1999/xlink" x="0px" y="0px"
	 width="100%" viewBox="0 0 512 512" enable-background="new 0 0 512 512" xml:space="preserve">
<path fill="#000000" opacity="1.000000" stroke="none" 
	d="
M1.000000,193.000000 
	C1.000000,128.666672 1.000000,64.833336 1.000000,1.000000 
	C171.666672,1.000000 342.333344,1.000000 513.000000,1.000000 
	C513.000000,171.666672 513.000000,342.333344 513.000000,513.000000 
	C342.333344,513.000000 171.666672,513.000000 1.000000,513.000000 
	C1.000000,406.500000 1.000000,300.000000 1.000000,193.000000 
M113.115852,23.995581 
	C107.410553,23.304916 102.649902,25.050631 98.971085,29.524456 
	C97.247047,31.621065 95.569931,33.756256 93.134048,35.920498 
	C91.145454,35.151882 89.130234,34.445271 87.172661,33.604435 
	C75.809502,28.723625 64.655418,23.286419 51.620979,24.937414 
	C42.910892,26.040672 31.174322,30.650265 29.965925,42.270950 
	C29.395580,47.755733 29.810692,53.363270 30.039648,58.904423 
	C30.220497,63.281261 33.344444,65.262497 37.168694,65.873688 
	C50.630543,68.025146 64.157654,69.780952 77.595428,72.066551 
	C89.719131,74.128662 101.758163,76.688538 114.152092,79.737793 
	C115.423553,79.789391 116.695015,79.840988 118.774834,80.042213 
	C127.150688,82.045403 135.526550,84.048599 143.977539,86.967957 
	C144.644272,100.961212 145.310989,114.954468 145.107086,128.991806 
	C136.667038,128.660873 128.229019,128.260788 119.786491,128.015335 
	C107.315384,127.652748 95.410095,130.682068 83.971100,135.151093 
	C68.332512,141.260834 55.070923,150.681534 44.850719,164.383560 
	C31.908459,181.734970 28.383442,201.992340 27.297840,222.556900 
	C26.465059,238.332275 27.193325,254.401886 29.291901,270.064026 
	C31.662996,287.760010 35.729786,305.303558 40.165539,322.630157 
	C46.381760,346.911469 56.702412,369.622253 70.056435,390.814636 
	C78.475319,404.175140 87.276894,417.350586 96.788612,429.942963 
	C101.643555,436.370300 108.441093,441.330292 115.399300,447.940277 
	C117.783966,443.118378 119.366714,439.917999 120.996986,436.621490 
	C122.394073,438.276123 123.783043,440.606079 125.774155,442.168854 
	C139.394897,452.859619 152.885132,463.748047 166.953720,473.823914 
	C174.299927,479.085236 182.651443,482.990173 190.745987,487.121552 
	C192.475739,488.004425 196.337524,488.019653 196.965820,487.019867 
	C198.066742,485.268036 197.598495,482.409546 197.439514,480.038055 
	C197.361572,478.875336 196.502518,477.765015 195.817856,476.229187 
	C202.103897,478.978790 207.796494,481.649811 213.625320,483.980225 
	C225.323639,488.657318 237.143600,492.999817 249.994751,493.059418 
	C260.179840,493.106689 270.366150,493.097137 280.550537,492.985199 
	C284.660278,492.940063 284.725037,490.484619 283.111847,487.651703 
	C282.335205,486.287811 281.134766,485.128723 279.988373,484.019379 
	C277.571106,481.680145 275.063019,479.434753 272.388672,476.962769 
	C273.479706,476.366669 273.782074,476.054871 274.024200,476.096161 
	C274.807281,476.229797 275.589081,476.437256 276.334747,476.714630 
	C291.788452,482.463043 307.820953,482.132324 323.613190,479.726562 
	C342.017578,476.922882 359.626587,471.157227 375.922882,461.654968 
	C390.630554,453.079102 403.893494,442.717651 412.972015,428.376831 
	C428.149261,404.402130 442.552734,379.920563 456.705719,355.320831 
	C465.248016,340.473175 472.825439,325.062103 480.591553,309.779755 
	C484.259399,302.562103 488.259186,295.312134 490.468079,287.606537 
	C493.044708,278.618164 489.687958,266.078644 477.281647,265.118744 
	C470.585571,264.600677 463.771484,265.608307 456.992828,265.107910 
	C455.330963,257.783325 453.665009,250.459641 452.007965,243.133957 
	C447.709778,224.132126 443.202179,205.174408 439.182831,186.113754 
	C435.536652,168.822861 432.424011,151.419464 429.937469,134.011505 
	C431.733826,134.194412 433.532776,134.355270 435.326141,134.563934 
	C445.105225,135.701797 454.894501,136.763168 464.655457,138.040527 
	C468.537750,138.548584 469.970581,136.248505 469.858093,133.293503 
	C469.413208,121.607193 468.728027,109.924980 467.793793,98.268349 
	C467.668427,96.703888 465.874237,94.406441 464.402679,93.971512 
	C458.969208,92.365631 453.346741,91.399284 447.813019,90.167419 
	C447.813019,90.167419 447.784088,90.157684 447.893738,89.631874 
	C447.640350,89.395195 447.386993,89.158516 446.826996,88.280991 
	C444.266449,83.756546 441.739807,79.196518 435.965393,77.275711 
	C434.048492,74.437752 432.689423,70.885033 430.121704,68.880997 
	C416.315918,58.106140 393.631897,62.647762 385.994293,80.989876 
	C379.268311,81.326302 372.512634,82.217987 365.823761,81.860390 
	C357.217102,81.400261 348.663971,79.938301 340.014282,78.062416 
	C339.179230,68.920044 337.599304,60.232124 328.506989,55.147278 
	C317.745758,49.129116 307.446991,50.234035 298.423370,55.948833 
	C293.350861,53.768997 289.065033,51.511265 284.520020,50.071892 
	C277.762817,47.931915 270.872803,47.503201 263.727997,48.888657 
	C255.042023,50.572971 247.160019,53.457840 240.062683,59.902485 
	C239.117599,59.618126 238.188858,59.169823 237.225006,59.073742 
	C219.852692,57.341988 202.476135,55.652763 184.787460,53.323795 
	C177.091751,39.128796 167.904510,26.295221 152.632248,19.318129 
	C138.269836,12.756703 124.975822,13.346870 113.115852,23.995581 
z"/>
<path fill="#AE9580" opacity="1.000000" stroke="none" 
	d="
M457.010620,265.927612 
	C463.771484,265.608307 470.585571,264.600677 477.281647,265.118744 
	C489.687958,266.078644 493.044708,278.618164 490.468079,287.606537 
	C488.259186,295.312134 484.259399,302.562103 480.591553,309.779755 
	C472.825439,325.062103 465.248016,340.473175 456.705719,355.320831 
	C442.552734,379.920563 428.149261,404.402130 412.972015,428.376831 
	C403.893494,442.717651 390.630554,453.079102 375.922882,461.654968 
	C359.626587,471.157227 342.017578,476.922882 323.613190,479.726562 
	C307.820953,482.132324 291.788452,482.463043 276.334747,476.714630 
	C275.589081,476.437256 274.807281,476.229797 274.024200,476.096161 
	C273.782074,476.054871 273.479706,476.366669 272.388672,476.962769 
	C275.063019,479.434753 277.571106,481.680145 279.988373,484.019379 
	C281.134766,485.128723 282.335205,486.287811 283.111847,487.651703 
	C284.725037,490.484619 284.660278,492.940063 280.550537,492.985199 
	C270.366150,493.097137 260.179840,493.106689 249.994751,493.059418 
	C237.143600,492.999817 225.323639,488.657318 213.625320,483.980225 
	C207.796494,481.649811 202.103897,478.978790 195.817856,476.229187 
	C196.502518,477.765015 197.361572,478.875336 197.439514,480.038055 
	C197.598495,482.409546 198.066742,485.268036 196.965820,487.019867 
	C196.337524,488.019653 192.475739,488.004425 190.745987,487.121552 
	C182.651443,482.990173 174.299927,479.085236 166.953720,473.823914 
	C152.885132,463.748047 139.394897,452.859619 125.774155,442.168854 
	C123.783043,440.606079 122.394073,438.276123 120.996986,436.621490 
	C119.366714,439.917999 117.783966,443.118378 115.399300,447.940277 
	C108.441093,441.330292 101.643555,436.370300 96.788612,429.942963 
	C87.276894,417.350586 78.475319,404.175140 70.056435,390.814636 
	C56.702412,369.622253 46.381760,346.911469 40.165539,322.630157 
	C35.729786,305.303558 31.662996,287.760010 29.291901,270.064026 
	C27.193325,254.401886 26.465059,238.332275 27.297840,222.556900 
	C28.383442,201.992340 31.908459,181.734970 44.850719,164.383560 
	C55.070923,150.681534 68.332512,141.260834 83.971100,135.151093 
	C95.410095,130.682068 107.315384,127.652748 119.786491,128.015335 
	C128.229019,128.260788 136.667038,128.660873 145.772308,129.259674 
	C156.333542,133.361633 166.552765,136.536682 176.045929,141.192230 
	C188.661469,147.379044 199.290359,156.196014 204.855865,169.718292 
	C207.800232,176.872162 209.317657,184.281540 206.855927,191.786636 
	C200.701385,176.805283 190.400879,167.118591 174.644455,163.700150 
	C165.924103,161.808243 157.807526,164.896591 149.741348,167.220505 
	C135.492264,171.325714 122.319656,170.090088 109.698044,161.894562 
	C102.028885,156.914780 93.189705,156.546127 84.641060,158.895630 
	C64.285629,164.490021 45.767681,189.787521 45.990715,211.432251 
	C45.969460,214.397736 45.947308,216.892654 45.941975,219.387619 
	C45.921352,229.039902 48.237156,238.068100 53.158127,246.743088 
	C55.249355,250.995621 56.943306,255.197647 59.525146,258.755310 
	C75.253258,280.428101 97.553093,289.634460 123.427750,290.782654 
	C134.611145,291.278900 145.881256,289.820984 157.048889,289.587952 
	C151.502182,299.215332 145.788467,308.379761 140.616348,317.840302 
	C137.202057,324.085541 135.505066,330.877472 138.156769,338.009064 
	C140.365982,343.950623 146.557129,347.884247 152.185303,346.986969 
	C156.307648,346.329742 157.916763,342.990112 158.016312,335.221375 
	C158.080154,330.239014 157.104202,324.841827 158.679779,320.364441 
	C161.898148,311.218658 165.890991,302.205170 170.713165,293.795715 
	C178.646530,279.960510 188.374588,267.111450 195.768845,253.019119 
	C210.847275,224.281845 218.205521,193.552872 216.083191,160.495605 
	C216.524460,158.208511 216.891769,156.297318 216.978027,154.373520 
	C217.407471,144.795547 217.414429,135.183960 218.244171,125.642838 
	C219.047714,116.403091 220.670761,107.234619 222.217072,97.796707 
	C226.020187,83.735123 230.987381,70.617752 240.872452,59.899597 
	C247.160019,53.457840 255.042023,50.572971 263.727997,48.888657 
	C270.872803,47.503201 277.762817,47.931915 284.520020,50.071892 
	C289.065033,51.511265 293.350861,53.768997 298.423370,55.948833 
	C307.446991,50.234035 317.745758,49.129116 328.506989,55.147278 
	C337.599304,60.232124 339.179230,68.920044 339.947571,78.827774 
	C335.639313,82.016098 332.024841,84.988762 332.239990,90.435371 
	C332.591400,99.332672 333.498199,108.141708 338.184540,116.425697 
	C349.847961,138.140121 361.318268,159.572235 373.046448,180.862274 
	C376.303009,186.773926 380.324341,192.264267 384.004425,198.323822 
	C384.713745,200.361313 385.188751,202.166672 386.146423,203.663147 
	C403.285706,230.444565 419.010376,258.016754 432.816895,286.671265 
	C433.346039,287.769501 434.166687,288.727234 434.391235,289.062805 
	C441.920929,281.674774 449.235199,274.509766 456.517792,267.312622 
	C456.831696,267.002350 456.853027,266.396027 457.010620,265.927612 
M265.468781,286.521667 
	C277.601440,293.775970 290.910431,295.049622 304.512451,293.473145 
	C313.032562,292.485657 321.748871,291.442535 329.768158,285.954987 
	C335.539917,282.389862 334.624298,276.458649 333.635223,271.570709 
	C330.345093,255.311752 327.618866,238.736618 322.147797,223.171524 
	C315.103821,203.131668 305.538605,183.983795 297.206512,164.389130 
	C290.356415,148.279633 284.446777,131.867081 282.905304,114.235893 
	C282.064178,104.615417 281.327026,94.985855 280.474457,84.518463 
	C279.915863,86.023224 279.559509,86.746948 279.375977,87.512115 
	C275.182068,105.001396 272.137207,122.663528 272.052551,140.705368 
	C271.940765,164.531708 272.254303,188.363251 271.847931,212.183395 
	C271.687225,221.603256 270.858734,231.160767 268.933319,240.362473 
	C266.695587,251.056778 263.015167,261.458740 259.776123,271.930420 
	C257.864685,278.110046 259.650238,282.666595 265.468781,286.521667 
M212.967896,425.464478 
	C217.954025,428.687622 222.708969,432.364349 227.970810,435.046570 
	C242.197479,442.298553 257.685730,441.576813 272.941559,440.726685 
	C278.575470,440.412689 284.133362,437.897247 289.591888,436.000244 
	C290.648193,435.633118 291.602875,433.471222 291.594269,432.143768 
	C291.589661,431.424866 289.514954,430.262726 288.266083,430.092346 
	C284.168518,429.533264 279.986694,429.569000 275.900177,428.956268 
	C264.615082,427.264282 253.183762,426.072266 242.151962,423.315277 
	C233.192795,421.076324 224.780533,416.707916 215.996780,413.654846 
	C214.382507,413.093781 211.208694,413.686005 210.435074,414.856445 
	C209.392578,416.433777 209.648376,419.140930 209.987823,421.260529 
	C210.199921,422.584900 211.592316,423.720245 212.967896,425.464478 
M330.880798,448.440521 
	C334.432312,443.903595 338.102905,439.451141 341.431763,434.756317 
	C342.073517,433.851257 341.376190,431.996704 341.296539,430.580170 
	C339.897583,430.713104 338.387695,430.561371 337.128235,431.052216 
	C335.612091,431.643127 334.357269,432.868439 332.905121,433.665833 
	C325.791138,437.572205 319.010590,442.537231 311.421906,445.008667 
	C302.738617,447.836578 293.324982,448.412903 284.235321,450.005676 
	C278.550812,451.001831 272.770538,451.699951 267.262909,453.315094 
	C265.479584,453.838043 263.453827,456.795258 263.347260,458.738129 
	C263.262817,460.278656 265.676514,462.415649 267.463562,463.469208 
	C269.225891,464.508148 271.578705,464.821716 273.699829,464.933044 
	C294.381348,466.018402 313.656342,462.045441 330.880798,448.440521 
M193.498734,426.014587 
	C186.404617,419.247772 179.308853,412.482697 172.217239,405.713257 
	C169.501144,403.120575 166.487152,400.196075 162.719910,403.079803 
	C159.015717,405.915344 158.888611,410.314453 161.538742,413.847198 
	C165.570099,419.221191 169.903763,424.472015 174.740875,429.117157 
	C186.135712,440.059814 199.766098,447.132812 215.216217,450.471313 
	C217.925934,451.056854 220.870773,450.554382 223.707016,450.554382 
	C223.933014,450.017059 224.159012,449.479767 224.385010,448.942444 
	C215.414001,439.997009 203.489517,434.808258 193.498734,426.014587 
M284.992676,404.795532 
	C292.379700,402.891266 299.977386,401.416443 305.688354,395.758972 
	C306.641510,394.814697 307.031647,393.302155 307.681946,392.052185 
	C306.257874,391.390900 304.812744,390.133636 303.413818,390.183167 
	C299.628265,390.317169 295.847931,390.913239 292.091339,391.493225 
	C281.700562,393.097473 271.389282,393.925507 261.090912,390.627472 
	C257.831757,389.583740 254.275116,389.404785 250.833740,389.013733 
	C247.832672,388.672699 245.101913,389.810638 245.049606,392.992401 
	C245.012894,395.226196 246.038803,398.670959 247.660126,399.511749 
	C252.275955,401.905365 257.329010,404.164398 262.414124,404.774078 
	C269.556885,405.630463 276.883636,404.952789 284.992676,404.795532 
M132.823853,405.888794 
	C135.298645,406.407074 137.773438,406.925354 140.248230,407.443634 
	C139.567215,404.890717 138.910461,402.330841 138.182693,399.791321 
	C138.052856,399.338287 137.630768,398.968140 137.340149,398.562164 
	C129.995346,388.302368 122.720757,377.991089 115.260399,367.815979 
	C113.115677,364.890808 110.657043,362.096344 107.901276,359.762756 
	C106.621742,358.679291 103.727814,357.937531 102.563347,358.656555 
	C100.895042,359.686646 99.072174,362.288666 99.225220,364.053955 
	C99.513359,367.377441 100.594925,370.935333 102.349808,373.776123 
	C110.115204,386.346527 120.039688,396.992188 132.823853,405.888794 
z"/>
<path fill="#865B52" opacity="1.000000" stroke="none" 
	d="
M457.001709,265.517761 
	C456.853027,266.396027 456.831696,267.002350 456.517792,267.312622 
	C449.235199,274.509766 441.920929,281.674774 434.391235,289.062805 
	C434.166687,288.727234 433.346039,287.769501 432.816895,286.671265 
	C419.010376,258.016754 403.285706,230.444565 386.146423,203.663147 
	C385.188751,202.166672 384.713745,200.361313 384.006470,197.873108 
	C383.333832,185.994186 382.514954,174.948425 382.044312,163.887863 
	C381.508270,151.289459 381.282928,138.677841 381.337036,126.066635 
	C393.230133,127.715477 404.725159,129.265839 416.178986,131.076874 
	C420.526886,131.764328 424.779877,133.051727 429.076111,134.065674 
	C432.424011,151.419464 435.536652,168.822861 439.182831,186.113754 
	C443.202179,205.174408 447.709778,224.132126 452.007965,243.133957 
	C453.665009,250.459641 455.330963,257.783325 457.001709,265.517761 
z"/>
<path fill="#855D54" opacity="1.000000" stroke="none" 
	d="
M207.139252,192.013000 
	C209.317657,184.281540 207.800232,176.872162 204.855865,169.718292 
	C199.290359,156.196014 188.661469,147.379044 176.045929,141.192230 
	C166.552765,136.536682 156.333542,133.361633 146.207611,129.237640 
	C145.310989,114.954468 144.644272,100.961212 144.367004,86.489609 
	C145.582794,86.032669 146.431259,85.938919 147.232117,86.092873 
	C158.068848,88.176102 168.884094,90.374542 179.735901,92.374916 
	C187.158463,93.743149 194.629730,94.847206 202.053009,96.460663 
	C205.053497,109.914650 208.190674,122.953079 211.066696,136.048874 
	C212.873627,144.276642 214.288727,152.590469 215.879623,160.865677 
	C218.205521,193.552872 210.847275,224.281845 195.768845,253.019119 
	C188.374588,267.111450 178.646530,279.960510 170.713165,293.795715 
	C165.890991,302.205170 161.898148,311.218658 158.679779,320.364441 
	C157.104202,324.841827 158.080154,330.239014 158.016312,335.221375 
	C157.916763,342.990112 156.307648,346.329742 152.185303,346.986969 
	C146.557129,347.884247 140.365982,343.950623 138.156769,338.009064 
	C135.505066,330.877472 137.202057,324.085541 140.616348,317.840302 
	C145.788467,308.379761 151.502182,299.215332 157.351578,289.433197 
	C168.468506,273.629242 179.219635,258.317169 190.229752,242.791702 
	C196.544449,233.862076 201.941147,224.856369 203.318085,213.707581 
	C204.766373,206.301254 205.952820,199.157135 207.139252,192.013000 
z"/>
<path fill="#73803A" opacity="1.000000" stroke="none" 
	d="
M429.506805,134.038589 
	C424.779877,133.051727 420.526886,131.764328 416.178986,131.076874 
	C404.725159,129.265839 393.230133,127.715477 380.915192,126.037788 
	C375.255768,125.114807 370.379639,124.432175 365.620789,123.269630 
	C356.408569,121.019165 347.262421,118.498444 338.088867,116.089729 
	C333.498199,108.141708 332.591400,99.332672 332.239990,90.435371 
	C332.024841,84.988762 335.639313,82.016098 339.984314,79.250504 
	C348.663971,79.938301 357.217102,81.400261 365.823761,81.860390 
	C372.512634,82.217987 379.268311,81.326302 386.766174,81.243484 
	C392.026367,81.983772 396.514679,82.470444 401.201599,83.260811 
	C403.707947,91.510284 406.205414,99.407822 408.243530,107.422188 
	C409.262054,111.427254 409.045380,115.756432 410.154633,119.724533 
	C410.782532,121.970665 412.964203,123.782455 414.446075,125.789864 
	C416.069794,124.053307 417.791626,122.394852 419.267792,120.540802 
	C419.838348,119.824173 420.053253,118.670944 420.086639,117.704742 
	C420.321503,110.914291 420.466614,104.120728 420.770203,97.209824 
	C420.899994,97.091492 421.159515,96.854759 421.444000,97.103554 
	C422.100128,98.455399 422.686951,99.535339 422.808319,100.665283 
	C423.570618,107.762100 424.060242,114.893219 425.028656,121.959732 
	C425.307434,123.994003 426.867432,125.852707 427.840027,127.791908 
	C429.909454,126.693153 432.990509,126.095863 433.835938,124.390358 
	C435.551636,120.929375 436.488922,116.919838 436.947388,113.041878 
	C437.453339,108.762161 437.062897,104.376472 437.062897,100.036934 
	C437.641998,100.009598 438.221100,99.982254 438.800171,99.954918 
	C439.268616,106.803246 439.505737,113.678978 440.312134,120.487289 
	C440.666534,123.479935 441.938049,128.693314 443.211578,128.824112 
	C447.552643,129.269928 448.041626,124.737061 449.037781,121.515427 
	C452.304260,110.951416 451.133270,100.518303 447.795319,90.192497 
	C453.346741,91.399284 458.969208,92.365631 464.402679,93.971512 
	C465.874237,94.406441 467.668427,96.703888 467.793793,98.268349 
	C468.728027,109.924980 469.413208,121.607193 469.858093,133.293503 
	C469.970581,136.248505 468.537750,138.548584 464.655457,138.040527 
	C454.894501,136.763168 445.105225,135.701797 435.326141,134.563934 
	C433.532776,134.355270 431.733826,134.194412 429.506805,134.038589 
z"/>
<path fill="#727F39" opacity="1.000000" stroke="none" 
	d="
M202.079224,96.069366 
	C194.629730,94.847206 187.158463,93.743149 179.735901,92.374916 
	C168.884094,90.374542 158.068848,88.176102 147.232117,86.092873 
	C146.431259,85.938919 145.582794,86.032669 144.329437,86.031525 
	C135.526550,84.048599 127.150688,82.045403 118.584541,79.718704 
	C120.106033,77.853409 122.168365,76.561005 123.471840,74.728745 
	C131.067093,64.052315 141.630371,57.104443 153.255341,50.909523 
	C164.169128,51.945839 174.634811,52.950142 185.100494,53.954445 
	C202.476135,55.652763 219.852692,57.341988 237.225006,59.073742 
	C238.188858,59.169823 239.117599,59.618126 240.467560,59.901039 
	C230.987381,70.617752 226.020187,83.735123 221.781860,97.782639 
	C214.735367,97.360916 208.407288,96.715141 202.079224,96.069366 
z"/>
<path fill="#727F3A" opacity="1.000000" stroke="none" 
	d="
M113.834541,79.028885 
	C101.758163,76.688538 89.719131,74.128662 77.595428,72.066551 
	C64.157654,69.780952 50.630543,68.025146 37.168694,65.873688 
	C33.344444,65.262497 30.220497,63.281261 30.039648,58.904423 
	C29.810692,53.363270 29.395580,47.755733 29.965925,42.270950 
	C31.174322,30.650265 42.910892,26.040672 51.620979,24.937414 
	C64.655418,23.286419 75.809502,28.723625 87.172661,33.604435 
	C89.130234,34.445271 91.145454,35.151882 93.550270,36.292980 
	C92.919662,43.287884 91.512535,49.879868 90.949707,56.543171 
	C90.559288,61.165310 92.348915,65.062233 96.645653,64.991600 
	C98.589653,68.061714 99.827347,71.927521 101.395668,72.066666 
	C104.067459,72.303696 107.146111,70.521736 109.670502,68.966026 
	C111.402138,67.898865 112.424988,65.722519 113.888435,64.157753 
	C114.424026,63.585094 115.316422,63.346146 116.101639,63.343136 
	C115.383011,68.830505 114.608780,73.929695 113.834541,79.028885 
z"/>
<path fill="#F5E8BD" opacity="1.000000" stroke="none" 
	d="
M447.804169,90.179962 
	C451.133270,100.518303 452.304260,110.951416 449.037781,121.515427 
	C448.041626,124.737061 447.552643,129.269928 443.211578,128.824112 
	C441.938049,128.693314 440.666534,123.479935 440.312134,120.487289 
	C439.505737,113.678978 439.268616,106.803246 438.800171,99.954918 
	C438.221100,99.982254 437.641998,100.009598 437.062897,100.036934 
	C437.062897,104.376472 437.453339,108.762161 436.947388,113.041878 
	C436.488922,116.919838 435.551636,120.929375 433.835938,124.390358 
	C432.990509,126.095863 429.909454,126.693153 427.840027,127.791908 
	C426.867432,125.852707 425.307434,123.994003 425.028656,121.959732 
	C424.060242,114.893219 423.570618,107.762100 422.808319,100.665283 
	C422.686951,99.535339 422.100128,98.455399 421.420624,96.877457 
	C420.916168,96.184273 420.719574,95.965973 420.522949,95.747681 
	C420.562103,96.274513 420.601257,96.801338 420.640442,97.328163 
	C420.466614,104.120728 420.321503,110.914291 420.086639,117.704742 
	C420.053253,118.670944 419.838348,119.824173 419.267792,120.540802 
	C417.791626,122.394852 416.069794,124.053307 414.446075,125.789864 
	C412.964203,123.782455 410.782532,121.970665 410.154633,119.724533 
	C409.045380,115.756432 409.262054,111.427254 408.243530,107.422188 
	C406.205414,99.407822 403.707947,91.510284 401.228210,82.862953 
	C401.889771,80.380989 402.837646,77.028931 403.537964,77.079887 
	C407.535187,77.370735 411.473480,78.472008 415.899811,79.395592 
	C416.719391,76.414902 420.138184,74.851967 423.858124,76.336838 
	C427.188995,77.666405 429.914368,80.512833 432.452087,82.359131 
	C433.467468,81.116257 434.742310,79.555786 436.017151,77.995331 
	C441.739807,79.196518 444.266449,83.756546 446.943848,88.873505 
	C447.301849,89.696579 447.542969,89.927132 447.784088,90.157684 
	C447.784088,90.157684 447.813019,90.167419 447.804169,90.179962 
z"/>
<path fill="#865E55" opacity="1.000000" stroke="none" 
	d="
M184.943970,53.639122 
	C174.634811,52.950142 164.169128,51.945839 153.437561,50.630951 
	C154.231583,48.442905 156.588104,45.962917 156.058823,44.823978 
	C155.183899,42.941219 152.618103,41.325344 150.448471,40.707001 
	C148.215988,40.070732 145.443268,40.259731 143.194473,40.982399 
	C139.007736,42.327854 135.029633,44.322491 130.833542,45.700478 
	C132.654221,43.813087 134.663971,42.339333 136.545746,40.717133 
	C140.430206,37.368500 139.886780,32.799652 135.054031,30.930031 
	C132.909683,30.100460 129.779251,29.781178 127.877037,30.755035 
	C122.634918,33.438805 117.768265,36.871960 112.831238,40.127216 
	C111.037689,41.309803 109.465240,42.827717 107.791916,44.192635 
	C107.385719,43.807816 106.979523,43.423000 106.573326,43.038181 
	C109.012398,39.625126 111.470932,36.225765 113.884560,32.794815 
	C115.924583,29.894949 117.251213,26.950611 113.995476,23.967754 
	C124.975822,13.346870 138.269836,12.756703 152.632248,19.318129 
	C167.904510,26.295221 177.091751,39.128796 184.943970,53.639122 
z"/>
<path fill="#F6E8BE" opacity="1.000000" stroke="none" 
	d="
M113.555664,23.981667 
	C117.251213,26.950611 115.924583,29.894949 113.884560,32.794815 
	C111.470932,36.225765 109.012398,39.625126 106.573326,43.038181 
	C106.979523,43.423000 107.385719,43.807816 107.791916,44.192635 
	C109.465240,42.827717 111.037689,41.309803 112.831238,40.127216 
	C117.768265,36.871960 122.634918,33.438805 127.877037,30.755035 
	C129.779251,29.781178 132.909683,30.100460 135.054031,30.930031 
	C139.886780,32.799652 140.430206,37.368500 136.545746,40.717133 
	C134.663971,42.339333 132.654221,43.813087 130.853302,45.684853 
	C131.004196,46.015663 131.042191,45.982574 130.741241,45.760677 
	C129.944748,46.030041 129.449173,46.521301 128.971405,47.003342 
	C128.989182,46.994125 129.010864,46.960445 128.685944,46.998211 
	C128.050964,47.335590 127.740875,47.635204 127.119202,47.986641 
	C124.862930,50.364334 122.918251,52.690212 120.986259,55.007202 
	C120.998947,54.998322 121.011124,54.969845 120.686462,55.085686 
	C120.236572,55.809444 120.111343,56.417358 119.995323,57.014744 
	C120.004532,57.004215 120.020615,56.981319 119.684914,56.880104 
	C118.894165,57.521034 118.439117,58.263184 117.992371,59.003204 
	C118.000664,59.001080 118.002037,58.984066 117.704376,59.036102 
	C116.973671,59.745335 116.540627,60.402538 115.900879,61.398186 
	C115.790375,62.168552 115.886559,62.600479 115.999664,63.013931 
	C116.016586,62.995464 116.046043,62.954952 116.046043,62.954956 
	C115.316422,63.346146 114.424026,63.585094 113.888435,64.157753 
	C112.424988,65.722519 111.402138,67.898865 109.670502,68.966026 
	C107.146111,70.521736 104.067459,72.303696 101.395668,72.066666 
	C99.827347,71.927521 98.589653,68.061714 96.645653,64.991600 
	C92.348915,65.062233 90.559288,61.165310 90.949707,56.543171 
	C91.512535,49.879868 92.919662,43.287884 93.919022,36.269714 
	C95.569931,33.756256 97.247047,31.621065 98.971085,29.524456 
	C102.649902,25.050631 107.410553,23.304916 113.555664,23.981667 
z"/>
<path fill="#F5E8BD" opacity="1.000000" stroke="none" 
	d="
M130.984436,46.031288 
	C135.029633,44.322491 139.007736,42.327854 143.194473,40.982399 
	C145.443268,40.259731 148.215988,40.070732 150.448471,40.707001 
	C152.618103,41.325344 155.183899,42.941219 156.058823,44.823978 
	C156.588104,45.962917 154.231583,48.442905 152.989441,50.598938 
	C141.630371,57.104443 131.067093,64.052315 123.471840,74.728745 
	C122.168365,76.561005 120.106033,77.853409 118.180359,79.643890 
	C116.695015,79.840988 115.423553,79.789391 113.993317,79.383339 
	C114.608780,73.929695 115.383011,68.830505 116.101639,63.343132 
	C116.046043,62.954952 116.016586,62.995464 116.278793,63.022011 
	C116.714149,62.725185 116.887291,62.401810 117.337425,61.839920 
	C117.743629,60.728958 117.872833,59.856514 118.002037,58.984066 
	C118.002037,58.984066 118.000664,59.001080 118.323105,59.146545 
	C119.103897,58.521778 119.562256,57.751549 120.020615,56.981316 
	C120.020615,56.981319 120.004532,57.004215 120.322098,56.902084 
	C120.763489,56.189915 120.887306,55.579880 121.011124,54.969845 
	C121.011124,54.969845 120.998947,54.998322 121.329712,55.114479 
	C124.167885,52.844589 126.675278,50.458538 129.368942,47.759060 
	C129.373764,47.283901 129.192307,47.122173 129.010864,46.960445 
	C129.010864,46.960445 128.989182,46.994125 129.268860,47.247177 
	C130.046417,46.994343 130.544312,46.488457 131.042191,45.982574 
	C131.042191,45.982574 131.004196,46.015663 130.984436,46.031288 
z"/>
<path fill="#875D53" opacity="1.000000" stroke="none" 
	d="
M435.991272,77.635513 
	C434.742310,79.555786 433.467468,81.116257 432.452087,82.359131 
	C429.914368,80.512833 427.188995,77.666405 423.858124,76.336838 
	C420.138184,74.851967 416.719391,76.414902 415.899811,79.395592 
	C411.473480,78.472008 407.535187,77.370735 403.537964,77.079887 
	C402.837646,77.028931 401.889771,80.380989 401.029602,82.559265 
	C396.514679,82.470444 392.026367,81.983772 387.228699,81.219559 
	C393.631897,62.647762 416.315918,58.106140 430.121704,68.880997 
	C432.689423,70.885033 434.048492,74.437752 435.991272,77.635513 
z"/>
<path fill="#73803A" opacity="1.000000" stroke="none" 
	d="
M447.838928,89.894775 
	C447.542969,89.927132 447.301849,89.696579 447.097168,89.193924 
	C447.386993,89.158516 447.640350,89.395195 447.838928,89.894775 
z"/>
<path fill="#FCE9C6" opacity="1.000000" stroke="none" 
	d="
M189.970764,243.005127 
	C179.219635,258.317169 168.468506,273.629242 157.414673,289.096069 
	C145.881256,289.820984 134.611145,291.278900 123.427750,290.782654 
	C97.553093,289.634460 75.253258,280.428101 59.525146,258.755310 
	C56.943306,255.197647 55.249355,250.995621 53.434135,246.532333 
	C54.937881,244.606171 56.141544,243.229111 57.368950,241.873535 
	C66.817696,231.438202 75.140419,219.802917 88.405289,212.991577 
	C89.823029,212.487366 90.941292,212.143585 91.948532,211.595734 
	C98.185089,208.203506 100.955811,201.082947 98.602417,194.619995 
	C96.327591,188.372803 89.782433,184.459641 83.044167,186.123444 
	C79.818840,186.919846 76.971451,189.246887 73.591263,190.865570 
	C64.152275,197.554214 55.074905,204.257950 45.997543,210.961700 
	C45.767681,189.787521 64.285629,164.490021 84.641060,158.895630 
	C93.189705,156.546127 102.028885,156.914780 109.698044,161.894562 
	C122.319656,170.090088 135.492264,171.325714 149.741348,167.220505 
	C157.807526,164.896591 165.924103,161.808243 174.644455,163.700150 
	C190.400879,167.118591 200.701385,176.805283 206.855927,191.786636 
	C205.952820,199.157135 204.766373,206.301254 203.101151,213.453735 
	C195.791748,208.269272 188.961105,203.076477 182.120712,197.895370 
	C182.110962,197.907059 182.122192,197.882080 182.111389,197.604645 
	C181.775406,197.170288 181.450195,197.013397 180.945160,196.574539 
	C176.777039,190.779160 171.559891,188.132721 164.787521,190.070465 
	C159.540268,191.571823 156.267288,195.278244 155.512009,200.700958 
	C154.557816,207.551941 158.112900,212.037231 163.991470,215.365051 
	C164.433197,215.695312 164.762695,215.777756 165.088654,215.889252 
	C165.085098,215.918320 165.134048,215.886612 165.197006,216.218201 
	C173.496902,225.368240 181.733841,234.186691 189.970764,243.005127 
M91.217552,232.299210 
	C98.927643,237.637634 107.615105,239.825211 116.242485,236.316360 
	C123.243721,233.468887 128.430069,234.044006 134.750809,238.041763 
	C143.661392,243.677536 156.802139,241.170059 162.482224,233.710281 
	C164.348373,231.259460 167.646744,228.191116 164.555420,225.023178 
	C161.654129,222.049942 158.774048,225.096069 156.232544,226.833328 
	C148.166702,232.346802 139.693909,231.111420 132.514450,222.295898 
	C136.883957,218.430573 141.291901,214.370453 145.881424,210.527145 
	C149.004990,207.911453 148.265030,205.706894 145.972870,203.011612 
	C136.431366,191.792068 117.002556,191.649185 106.837410,203.044220 
	C111.014000,209.620544 115.240616,216.275635 119.701973,223.300339 
	C111.124161,227.294861 103.620934,226.937225 96.131638,222.752960 
	C93.530167,221.299545 90.536003,218.399963 87.747482,221.826080 
	C85.095573,225.084381 87.663849,228.022537 89.640320,230.717117 
	C89.933563,231.116943 90.311325,231.454758 91.217552,232.299210 
z"/>
<path fill="#875C53" opacity="1.000000" stroke="none" 
	d="
M265.049683,285.985229 
	C259.650238,282.666595 257.864685,278.110046 259.776123,271.930420 
	C263.015167,261.458740 266.695587,251.056778 268.933319,240.362473 
	C270.858734,231.160767 271.687225,221.603256 271.847931,212.183395 
	C272.254303,188.363251 271.940765,164.531708 272.052551,140.705368 
	C272.137207,122.663528 275.182068,105.001396 279.375977,87.512115 
	C279.559509,86.746948 279.915863,86.023224 280.474457,84.518463 
	C281.327026,94.985855 282.064178,104.615417 282.905304,114.235893 
	C284.446777,131.867081 290.356415,148.279633 297.206512,164.389130 
	C305.538605,183.983795 315.103821,203.131668 322.147797,223.171524 
	C327.618866,238.736618 330.345093,255.311752 333.635223,271.570709 
	C334.624298,276.458649 335.539917,282.389862 329.154297,285.748718 
	C327.327454,281.345917 326.114471,277.149384 324.913818,272.560608 
	C324.624847,271.237762 324.272491,270.320221 324.029755,269.374542 
	C319.999512,253.674164 316.600098,237.777908 311.783508,222.323181 
	C307.299622,207.936020 301.365997,193.996674 295.964691,179.900772 
	C291.970490,169.476990 287.806244,159.118362 283.996704,149.439438 
	C283.996704,156.185837 283.996643,163.421906 283.996704,170.657974 
	C283.996796,186.962326 284.399719,203.280365 283.846344,219.565903 
	C283.512970,229.377563 282.176697,239.228241 280.390350,248.894928 
	C278.883118,257.050995 276.077728,264.967163 273.566711,273.174988 
	C270.540833,277.568695 267.795258,281.776978 265.049683,285.985229 
z"/>
<path fill="#000000" opacity="1.000000" stroke="none" 
	d="
M338.184540,116.425697 
	C347.262421,118.498444 356.408569,121.019165 365.620789,123.269630 
	C370.379639,124.432175 375.255768,125.114807 380.500732,126.043114 
	C381.282928,138.677841 381.508270,151.289459 382.044312,163.887863 
	C382.514954,174.948425 383.333832,185.994186 383.996826,197.497192 
	C380.324341,192.264267 376.303009,186.773926 373.046448,180.862274 
	C361.318268,159.572235 349.847961,138.140121 338.184540,116.425697 
z"/>
<path fill="#CCAC93" opacity="1.000000" stroke="none" 
	d="
M212.711487,425.202454 
	C211.592316,423.720245 210.199921,422.584900 209.987823,421.260529 
	C209.648376,419.140930 209.392578,416.433777 210.435074,414.856445 
	C211.208694,413.686005 214.382507,413.093781 215.996780,413.654846 
	C224.780533,416.707916 233.192795,421.076324 242.151962,423.315277 
	C253.183762,426.072266 264.615082,427.264282 275.900177,428.956268 
	C279.986694,429.569000 284.168518,429.533264 288.266083,430.092346 
	C289.514954,430.262726 291.589661,431.424866 291.594269,432.143768 
	C291.602875,433.471222 290.648193,435.633118 289.591888,436.000244 
	C284.133362,437.897247 278.575470,440.412689 272.941559,440.726685 
	C257.685730,441.576813 242.197479,442.298553 227.970810,435.046570 
	C222.708969,432.364349 217.954025,428.687622 212.711487,425.202454 
z"/>
<path fill="#5D6369" opacity="1.000000" stroke="none" 
	d="
M88.054489,213.057663 
	C75.140419,219.802917 66.817696,231.438202 57.368950,241.873535 
	C56.141544,243.229111 54.937881,244.606171 53.447212,246.184036 
	C48.237156,238.068100 45.921352,229.039902 45.941975,219.387619 
	C45.947308,216.892654 45.969460,214.397736 45.990711,211.432236 
	C55.074905,204.257950 64.152275,197.554214 73.621399,191.261078 
	C69.005714,204.166519 74.682388,212.812515 88.054489,213.057663 
z"/>
<path fill="#CCAC93" opacity="1.000000" stroke="none" 
	d="
M330.582581,448.636719 
	C313.656342,462.045441 294.381348,466.018402 273.699829,464.933044 
	C271.578705,464.821716 269.225891,464.508148 267.463562,463.469208 
	C265.676514,462.415649 263.262817,460.278656 263.347260,458.738129 
	C263.453827,456.795258 265.479584,453.838043 267.262909,453.315094 
	C272.770538,451.699951 278.550812,451.001831 284.235321,450.005676 
	C293.324982,448.412903 302.738617,447.836578 311.421906,445.008667 
	C319.010590,442.537231 325.791138,437.572205 332.905121,433.665833 
	C334.357269,432.868439 335.612091,431.643127 337.128235,431.052216 
	C338.387695,430.561371 339.897583,430.713104 341.296570,430.580170 
	C341.376190,431.996704 342.073517,433.851257 341.431763,434.756317 
	C338.102905,439.451141 334.432312,443.903595 330.582581,448.636719 
z"/>
<path fill="#616468" opacity="1.000000" stroke="none" 
	d="
M324.901489,272.952820 
	C326.114471,277.149384 327.327454,281.345917 328.801727,285.827148 
	C321.748871,291.442535 313.032562,292.485657 304.512451,293.473145 
	C290.910431,295.049622 277.601440,293.775970 265.259216,286.253448 
	C267.795258,281.776978 270.540833,277.568695 273.805054,273.492737 
	C275.591583,273.945709 276.842529,274.387573 278.130096,274.566986 
	C285.708984,275.623169 293.045654,277.992767 301.018585,276.189423 
	C308.824249,274.423889 316.928375,273.977966 324.901489,272.952820 
z"/>
<path fill="#CCAC93" opacity="1.000000" stroke="none" 
	d="
M193.754639,426.261780 
	C203.489517,434.808258 215.414001,439.997009 224.385010,448.942444 
	C224.159012,449.479767 223.933014,450.017059 223.707016,450.554382 
	C220.870773,450.554382 217.925934,451.056854 215.216217,450.471313 
	C199.766098,447.132812 186.135712,440.059814 174.740875,429.117157 
	C169.903763,424.472015 165.570099,419.221191 161.538742,413.847198 
	C158.888611,410.314453 159.015717,405.915344 162.719910,403.079803 
	C166.487152,400.196075 169.501144,403.120575 172.217239,405.713257 
	C179.308853,412.482697 186.404617,419.247772 193.754639,426.261780 
z"/>
<path fill="#CCAB93" opacity="1.000000" stroke="none" 
	d="
M284.562195,404.863403 
	C276.883636,404.952789 269.556885,405.630463 262.414124,404.774078 
	C257.329010,404.164398 252.275955,401.905365 247.660126,399.511749 
	C246.038803,398.670959 245.012894,395.226196 245.049606,392.992401 
	C245.101913,389.810638 247.832672,388.672699 250.833740,389.013733 
	C254.275116,389.404785 257.831757,389.583740 261.090912,390.627472 
	C271.389282,393.925507 281.700562,393.097473 292.091339,391.493225 
	C295.847931,390.913239 299.628265,390.317169 303.413818,390.183167 
	C304.812744,390.133636 306.257874,391.390900 307.681946,392.052185 
	C307.031647,393.302155 306.641510,394.814697 305.688354,395.758972 
	C299.977386,401.416443 292.379700,402.891266 284.562195,404.863403 
z"/>
<path fill="#CCAC93" opacity="1.000000" stroke="none" 
	d="
M132.505203,405.691406 
	C120.039688,396.992188 110.115204,386.346527 102.349808,373.776123 
	C100.594925,370.935333 99.513359,367.377441 99.225220,364.053955 
	C99.072174,362.288666 100.895042,359.686646 102.563347,358.656555 
	C103.727814,357.937531 106.621742,358.679291 107.901276,359.762756 
	C110.657043,362.096344 113.115677,364.890808 115.260399,367.815979 
	C122.720757,377.991089 129.995346,388.302368 137.340149,398.562164 
	C137.630768,398.968140 138.052856,399.338287 138.182693,399.791321 
	C138.910461,402.330841 139.567215,404.890717 140.248230,407.443634 
	C137.773438,406.925354 135.298645,406.407074 132.505203,405.691406 
z"/>
<path fill="#000000" opacity="1.000000" stroke="none" 
	d="
M202.053009,96.460663 
	C208.407288,96.715141 214.735367,97.360916 221.498657,98.020767 
	C220.670761,107.234619 219.047714,116.403091 218.244171,125.642838 
	C217.414429,135.183960 217.407471,144.795547 216.978027,154.373520 
	C216.891769,156.297318 216.524460,158.208511 216.083191,160.495605 
	C214.288727,152.590469 212.873627,144.276642 211.066696,136.048874 
	C208.190674,122.953079 205.053497,109.914650 202.053009,96.460663 
z"/>
<path fill="#5D6368" opacity="1.000000" stroke="none" 
	d="
M182.130463,197.883682 
	C188.961105,203.076477 195.791748,208.269272 202.839310,213.715927 
	C201.941147,224.856369 196.544449,233.862076 190.229767,242.791718 
	C181.733841,234.186691 173.496902,225.368240 165.610840,216.128876 
	C174.339203,215.994583 180.275848,212.393280 181.705276,205.786346 
	C182.256042,203.240616 182.012238,200.522995 182.130463,197.883682 
z"/>
<path fill="#73803A" opacity="1.000000" stroke="none" 
	d="
M420.770203,97.209824 
	C420.601257,96.801338 420.562103,96.274513 420.522949,95.747681 
	C420.719574,95.965973 420.916168,96.184273 421.136139,96.628662 
	C421.159515,96.854759 420.899994,97.091492 420.770203,97.209824 
z"/>
<path fill="#969B5D" opacity="1.000000" stroke="none" 
	d="
M129.182678,48.072487 
	C126.675278,50.458538 124.167885,52.844589 121.317032,55.123360 
	C122.918251,52.690212 124.862930,50.364334 127.558105,48.011913 
	C128.599960,48.014408 128.891312,48.043446 129.182678,48.072487 
z"/>
<path fill="#969B5D" opacity="1.000000" stroke="none" 
	d="
M119.684914,56.880104 
	C119.562256,57.751549 119.103897,58.521778 118.314812,59.148670 
	C118.439117,58.263184 118.894165,57.521034 119.684914,56.880104 
z"/>
<path fill="#969B5D" opacity="1.000000" stroke="none" 
	d="
M117.704376,59.036102 
	C117.872833,59.856514 117.743629,60.728958 117.213310,61.638107 
	C116.640900,61.396957 116.406021,61.191936 116.107582,61.059742 
	C116.540627,60.402538 116.973671,59.745335 117.704376,59.036102 
z"/>
<path fill="#727F3A" opacity="1.000000" stroke="none" 
	d="
M115.900879,61.398186 
	C116.406021,61.191936 116.640900,61.396957 116.936317,61.876617 
	C116.887291,62.401810 116.714149,62.725185 116.261871,63.040482 
	C115.886559,62.600479 115.790375,62.168552 115.900879,61.398186 
z"/>
<path fill="#865E55" opacity="1.000000" stroke="none" 
	d="
M130.741241,45.760674 
	C130.544312,46.488457 130.046417,46.994343 129.251068,47.256393 
	C129.449173,46.521301 129.944748,46.030041 130.741241,45.760674 
z"/>
<path fill="#969B5D" opacity="1.000000" stroke="none" 
	d="
M120.686462,55.085686 
	C120.887306,55.579880 120.763489,56.189915 120.312897,56.912613 
	C120.111343,56.417358 120.236572,55.809444 120.686462,55.085686 
z"/>
<path fill="#865E55" opacity="1.000000" stroke="none" 
	d="
M129.368942,47.759060 
	C128.891312,48.043446 128.599960,48.014408 127.869705,47.960091 
	C127.740875,47.635204 128.050964,47.335590 128.685944,46.998211 
	C129.192307,47.122173 129.373764,47.283901 129.368942,47.759060 
z"/>
<path fill="#060B09" opacity="1.000000" stroke="none" 
	d="
M90.933769,232.060226 
	C90.311325,231.454758 89.933563,231.116943 89.640320,230.717117 
	C87.663849,228.022537 85.095573,225.084381 87.747482,221.826080 
	C90.536003,218.399963 93.530167,221.299545 96.131638,222.752960 
	C103.620934,226.937225 111.124161,227.294861 119.701973,223.300339 
	C115.240616,216.275635 111.014000,209.620544 106.837410,203.044220 
	C117.002556,191.649185 136.431366,191.792068 145.972870,203.011612 
	C148.265030,205.706894 149.004990,207.911453 145.881424,210.527145 
	C141.291901,214.370453 136.883957,218.430573 132.514450,222.295898 
	C139.693909,231.111420 148.166702,232.346802 156.232544,226.833328 
	C158.774048,225.096069 161.654129,222.049942 164.555420,225.023178 
	C167.646744,228.191116 164.348373,231.259460 162.482224,233.710281 
	C156.802139,241.170059 143.661392,243.677536 134.750809,238.041763 
	C128.430069,234.044006 123.243721,233.468887 116.242485,236.316360 
	C107.615105,239.825211 98.927643,237.637634 90.933769,232.060226 
z"/>
<path fill="#040907" opacity="1.000000" stroke="none" 
	d="
M88.405289,212.991577 
	C74.682388,212.812515 69.005714,204.166519 73.983025,191.276184 
	C76.971451,189.246887 79.818840,186.919846 83.044167,186.123444 
	C89.782433,184.459641 96.327591,188.372803 98.602417,194.619995 
	C100.955811,201.082947 98.185089,208.203506 91.948532,211.595734 
	C90.941292,212.143585 89.823029,212.487366 88.405289,212.991577 
z"/>
<path fill="#050A08" opacity="1.000000" stroke="none" 
	d="
M182.120712,197.895370 
	C182.012238,200.522995 182.256042,203.240616 181.705276,205.786346 
	C180.275848,212.393280 174.339203,215.994583 165.547882,215.797287 
	C165.134048,215.886612 165.085098,215.918320 165.001984,215.627457 
	C164.572311,215.263474 164.225784,215.190353 163.879242,215.117233 
	C158.112900,212.037231 154.557816,207.551941 155.512009,200.700958 
	C156.267288,195.278244 159.540268,191.571823 164.787521,190.070465 
	C171.559891,188.132721 176.777039,190.779160 180.980011,196.859436 
	C181.503845,197.578232 181.813019,197.730148 182.122192,197.882080 
	C182.122192,197.882080 182.110962,197.907059 182.120712,197.895370 
z"/>
<path fill="#5D6368" opacity="1.000000" stroke="none" 
	d="
M163.991470,215.365051 
	C164.225784,215.190353 164.572311,215.263474 165.005524,215.598389 
	C164.762695,215.777756 164.433197,215.695312 163.991470,215.365051 
z"/>
<path fill="#5D6368" opacity="1.000000" stroke="none" 
	d="
M182.111389,197.604645 
	C181.813019,197.730148 181.503845,197.578232 181.159821,197.141403 
	C181.450195,197.013397 181.775406,197.170288 182.111389,197.604645 
z"/>
<path fill="#000000" opacity="1.000000" stroke="none" 
	d="
M324.913818,272.560608 
	C316.928375,273.977966 308.824249,274.423889 301.018585,276.189423 
	C293.045654,277.992767 285.708984,275.623169 278.130096,274.566986 
	C276.842529,274.387573 275.591583,273.945709 274.085327,273.307281 
	C276.077728,264.967163 278.883118,257.050995 280.390350,248.894928 
	C282.176697,239.228241 283.512970,229.377563 283.846344,219.565903 
	C284.399719,203.280365 283.996796,186.962326 283.996704,170.657974 
	C283.996643,163.421906 283.996704,156.185837 283.996704,149.439438 
	C287.806244,159.118362 291.970490,169.476990 295.964691,179.900772 
	C301.365997,193.996674 307.299622,207.936020 311.783508,222.323181 
	C316.600098,237.777908 319.999512,253.674164 324.029755,269.374542 
	C324.272491,270.320221 324.624847,271.237762 324.913818,272.560608 
z"/>
</svg>